<?xml version="1.0"?>
<svg xmlns="http://www.w3.org/2000/svg" xmlns:xlink="http://www.w3.org/1999/xlink" xmlns:svgjs="http://svgjs.com/svgjs" version="1.1" width="512" height="512" x="0" y="0" viewBox="0 0 512 512" style="enable-background:new 0 0 512 512" xml:space="preserve" class=""><g><g xmlns="http://www.w3.org/2000/svg"><g><g><path d="m76.422 256.264 214.901-214.344c3.519-3.51 9.218-3.503 12.728.017l108.564 108.846c3.9 3.91 3.892 10.242-.018 14.142l-214.194 213.637c-3.91 3.9-10.242 3.892-14.142-.018l-107.858-108.138c-3.9-3.91-3.892-10.242.019-14.142z" fill="#c373cd" data-original="#6dd4a1" style="" class=""/></g><g><path d="m291.323 41.92-43.887 43.773c19.426 19.477 47.347 25.305 71.868 17.49 1.271-.405 2.629.265 3.112 1.508.56 1.441 1.411 2.974 3.25 4.818 5.215 5.229 7.948 2.503 13.163 7.731 5.215 5.229 2.482 7.955 7.697 13.184 1.527 1.531 2.842 2.38 4.068 2.946 1.164.537 1.784 1.834 1.398 3.057-7.71 24.416-1.909 52.18 17.425 71.564l44.28-44.166c3.302-3.293 3.309-8.64.016-11.942l-109.662-109.947c-3.51-3.519-9.209-3.527-12.728-.016z" fill="#d10ed7" data-original="#04b59d" style="" class=""/></g></g><g><path d="m413.713 151.883-109.662-109.947c-3.51-3.519-9.209-3.527-12.728-.017l-9.474 9.45 121.981 122.299 9.868-9.842c3.302-3.294 3.309-8.641.015-11.943z" fill="#d325c8" data-original="#0c998c" style="" class=""/></g><g><g><path d="m119.439 216.034 267.98-140.38c4.892-2.563 10.936-.674 13.499 4.218l70.873 135.293c2.563 4.892.674 10.936-4.218 13.499l-267.98 140.38c-4.892 2.563-10.936.674-13.499-4.218l-70.873-135.293c-2.563-4.893-.675-10.936 4.218-13.499z" fill="#cb73d7" data-original="#ade092" style="" class=""/></g><g><path d="m387.419 75.654-10.305 5.398 66.196 126.366c2.164 4.131.569 9.235-3.562 11.399l-259.053 135.703 5.398 10.305c2.563 4.892 8.606 6.781 13.499 4.218l267.98-140.38c4.892-2.563 6.781-8.606 4.218-13.499l-70.873-135.292c-2.563-4.893-8.606-6.781-13.498-4.218z" fill="#c373cd" data-original="#6dd4a1" style="" class=""/></g><g><circle cx="293.505" cy="222.349" fill="#c373cd" r="59.591" data-original="#6dd4a1" style="" class=""/></g><g><path d="m387.419 75.654-54.022 28.299c12.765 24.367 37.694 38.225 63.43 38.047 1.334-.009 2.432 1.034 2.524 2.365.107 1.542.464 3.259 1.673 5.566 3.427 6.542 6.846 4.75 10.273 11.292s.008 8.333 3.434 14.875c1.004 1.916 2.007 3.117 3.01 4.021.952.859 1.159 2.282.427 3.335-14.614 21.024-17.32 49.259-4.617 73.51l54.022-28.299c4.892-2.563 6.781-8.606 4.218-13.499l-70.874-135.294c-2.563-4.893-8.606-6.781-13.498-4.218z" fill="#c373cd" data-original="#6dd4a1" style="" class=""/></g><g><path d="m387.419 75.654-10.305 5.398 66.196 126.366c2.164 4.131.569 9.235-3.562 11.399l-33.257 17.421c1.233 7.054 3.558 14.041 7.059 20.724l54.022-28.299c4.892-2.563 6.781-8.606 4.218-13.499l-70.873-135.292c-2.563-4.893-8.606-6.781-13.498-4.218z" fill="#d10ed7" data-original="#04b59d" style="" class=""/></g></g><g><path d="m276.208 201.852h203.343c13.807 0 25 11.193 25 25v136.713c0 13.807-11.193 25-25 25h-203.343z" fill="#173ed5" data-original="#f48156" style="" class=""/></g><g><path d="m479.72 201.852h-3.745v133.307c0 13.714-11.117 24.831-24.831 24.831h-174.936v28.576h203.512c13.714 0 24.831-11.117 24.831-24.831v-137.053c0-13.713-11.117-24.83-24.831-24.83z" fill="#0b3ed5" data-original="#d6694d" style="" class=""/></g><g><path d="m235.792 388.565h-203.343c-13.807 0-25-11.193-25-25v-136.713c0-13.807 11.193-25 25-25h203.343z" fill="#173ed5" data-original="#f48156" style="" class=""/></g><g><path d="m205.55 201.852v22.563c0 7.903-6.407 14.31-14.31 14.31h-183.791v125.009c0 13.714 11.117 24.831 24.831 24.831h203.513v-186.713z" fill="#0b3ed5" data-original="#d6694d" style="" class=""/></g><g><path d="m215.049 271.55c-5.118-5.545-12.32-8.698-19.866-8.698h-147.124c-7.545 0-14.748 3.154-19.866 8.698l-20.744 22.474v69.71c0 13.714 11.117 24.831 24.831 24.831h203.513v-94.541z" fill="#2d58d9" data-original="#fbac90" style="" class=""/></g><g><path d="m215.049 271.55c-2.678-2.901-5.929-5.14-9.498-6.622v18.568c0 7.903-6.407 14.31-14.31 14.31h-183.792v65.929c0 13.714 11.117 24.831 24.831 24.831h203.513v-94.541z" fill="#173ed5" data-original="#f48156" style="" class=""/></g><g><path d="m215.049 333.936c-5.118-5.545-12.32-8.698-19.866-8.698h-147.124c-7.545 0-14.748 3.154-19.866 8.698l-20.744 22.474v7.325c0 13.714 11.117 24.831 24.831 24.831h203.513v-32.156z" fill="#2d58d9" data-original="#fbac90" style="" class=""/></g><g><path d="m215.049 333.936c-2.678-2.901-5.929-5.14-9.498-6.622v18.94c0 7.903-6.407 14.31-14.31 14.31h-183.792v3.171c0 13.714 11.117 24.831 24.831 24.831h203.513v-32.156z" fill="#173ed5" data-original="#f48156" style="" class=""/></g><g><circle cx="168.775" cy="425.756" fill="#fff0af" r="46.557" data-original="#fff0af" style=""/></g><g><path d="m187.966 383.341c2.653 5.853 4.142 12.346 4.142 19.191 0 25.713-20.844 46.557-46.557 46.557-6.845 0-13.338-1.489-19.191-4.142 7.312 16.136 23.547 27.366 42.415 27.366 25.713 0 46.557-20.844 46.557-46.557 0-18.868-11.23-35.103-27.366-42.415z" fill="#ffe07d" data-original="#ffe07d" style="" class=""/></g><g><path d="m449.149 228.817h-119.494c-7.732 0-14 6.268-14 14v42.29h147.494v-42.29c0-7.732-6.268-14-14-14z" fill="#ecf4ff" data-original="#ecf4ff" style="" class=""/></g><g><path d="m449.244 228.817h-22.886c7.68 0 13.905 6.226 13.905 13.905v42.385h22.886v-42.385c0-7.679-6.226-13.905-13.905-13.905z" fill="#ddeafb" data-original="#ddeafb" style="" class=""/></g><g><path d="m372.836 256.982h-26.213c-3.252 0-5.889 2.636-5.889 5.889v17.477c0 3.252 2.636 5.889 5.889 5.889h26.213c3.252 0 5.889-2.636 5.889-5.889v-17.477c0-3.252-2.636-5.889-5.889-5.889z" fill="#ffe07d" data-original="#ffe07d" style="" class=""/></g><g><path d="m372.876 256.982h-13.585c3.23 0 5.849 2.619 5.849 5.849v17.556c0 3.23-2.619 5.849-5.849 5.849h13.585c3.23 0 5.849-2.619 5.849-5.849v-17.556c0-3.23-2.619-5.849-5.849-5.849z" fill="#ffd064" data-original="#ffd064" style="" class=""/></g><g><path d="m276.208 283.71v104.855h203.512c13.714 0 24.831-11.117 24.831-24.831v-80.024z" fill="#2d58d9" data-original="#fbac90" style="" class=""/></g><g><path d="m475.975 283.71v51.449c0 13.714-11.117 24.831-24.831 24.831h-174.936v28.576h203.512c13.714 0 24.831-11.117 24.831-24.831v-80.025z" fill="#173ed5" data-original="#f48156" style="" class=""/></g><g><path d="m232.535 201.852h46.93v186.713h-46.93z" fill="#057096" data-original="#057096" style="" class=""/></g><g><path d="m232.535 359.989h46.93v28.576h-46.93z" fill="#055e7f" data-original="#055e7f" style="" class=""/></g><g><g><g><circle cx="288.797" cy="391.735" fill="#fff0af" r="51.479" data-original="#fff0af" style=""/></g><g><path d="m310.016 344.836c2.933 6.472 4.579 13.651 4.579 21.22 0 28.431-23.048 51.479-51.479 51.479-7.568 0-14.748-1.647-21.22-4.58 8.086 17.841 26.036 30.259 46.899 30.259 28.431 0 51.479-23.048 51.479-51.479.002-20.862-12.416-38.813-30.258-46.899z" fill="#ffe07d" data-original="#ffe07d" style="" class=""/></g></g></g><g><path d="m479.72 194.402h-10.397l-61.839-118.048c-4.448-8.49-14.973-11.777-23.462-7.331l-56.723 29.714c-2.559-2.698-6.521-3.842-10.257-2.652-20.406 6.503-42.288 2.376-58.759-10.69l37.64-37.543c.969-.968 2.545-.965 3.512.005l23.524 23.584c2.905 2.913 7.621 2.919 10.535.014 2.913-2.906 2.919-7.623.014-10.536l-23.524-23.584c-6.769-6.786-17.796-6.799-24.581-.032l-157.508 157.099h-95.615c-17.799 0-32.28 14.48-32.28 32.28v137.052c0 17.799 14.481 32.28 32.28 32.28h91.448c-5.655 8.536-8.959 18.759-8.959 29.742 0 29.779 24.227 54.007 54.006 54.007s54.006-24.227 54.006-54.007c0-10.984-3.304-21.206-8.959-29.742h16.218c2.201 30.501 27.703 54.65 58.756 54.65 14.774 0 28.907-5.493 39.794-15.466 3.034-2.779 3.24-7.491.461-10.525-2.778-3.032-7.49-3.24-10.524-.461-8.133 7.45-18.692 11.553-29.731 11.553-24.278 0-44.03-19.752-44.03-44.03s19.752-44.03 44.03-44.03 44.03 19.752 44.03 44.03c0 2.108-.15 4.223-.445 6.288-.582 4.073 2.247 7.847 6.32 8.429 4.082.573 7.846-2.248 8.428-6.32.194-1.36.341-2.736.44-4.118h132.15c17.799 0 32.28-14.48 32.28-32.28v-137.052c.001-17.799-14.48-32.28-32.279-32.28zm17.382 32.28v49.579h-26.504v-33.539c0-11.775-9.58-21.354-21.354-21.354h-119.684c-11.775 0-21.354 9.579-21.354 21.354v33.539h-21.292v-66.96h192.806c9.584 0 17.382 7.797 17.382 17.381zm-125.826 49.579h-23.092v-11.829h23.092zm1.6-26.728h-26.293c-7.333 0-13.298 5.965-13.298 13.298v13.43h-10.181v-33.539c0-3.56 2.896-6.456 6.456-6.456h119.683c3.56 0 6.456 2.896 6.456 6.456v33.539h-69.526v-13.43c.001-7.333-5.965-13.298-13.297-13.298zm-42.307-135.69c13.764 21.177 36.773 34.393 62.18 35.527.407 1.328.962 2.652 1.676 4.016 2.562 4.891 5.409 6.867 7.488 8.31 1.397.97 1.92 1.333 2.784 2.983.865 1.651.865 2.287.867 3.987.002 2.531.006 5.995 2.568 10.888.549 1.049 1.138 2.012 1.775 2.9-2.371 3.799-4.404 7.797-6.095 11.949h-49.377c-.49-1.067-1.001-2.126-1.544-3.163-8.31-15.862-22.299-27.54-39.391-32.88-17.091-5.341-35.24-3.706-51.104 4.603-13.173 6.901-23.661 17.991-29.825 31.44h-.036-55.749zm-61.26 62.317c24.175-12.664 53.836-4.409 68.2 18.243h-88.02c4.865-7.66 11.682-13.98 19.82-18.243zm121.626-93.939c1.211-.635 2.717-.165 3.352 1.048l58.217 111.134h-32.277c1.215-2.311 2.563-4.55 4.056-6.698 2.858-4.112 2.191-9.75-1.549-13.113-.338-.304-.803-.8-1.406-1.952-.864-1.65-.865-2.286-.867-3.987-.002-2.531-.005-5.995-2.568-10.888-2.562-4.89-5.409-6.866-7.488-8.309-1.397-.97-1.92-1.333-2.785-2.984-.701-1.339-.802-2.058-.84-2.63-.356-5.224-4.715-9.293-9.94-9.293-.173.001-.346.002-.519.002-21.24 0-40.715-10.416-52.479-27.662zm-92.799 31.794-144.372 75.628 93.909-93.666c14.34 11.905 32.2 18.168 50.463 18.038zm-265.856 95.286h192.806v62.141l-4.564-4.944c-6.508-7.051-15.744-11.094-25.339-11.094h-90.389c-4.114 0-7.449 3.335-7.449 7.449s3.335 7.449 7.449 7.449h90.389c5.45 0 10.696 2.297 14.392 6.301l15.511 16.805v40.42l-4.564-4.944c-6.509-7.051-15.745-11.095-25.339-11.095h-147.125c-9.595 0-18.83 4.044-25.339 11.095l-7.821 8.473v-40.419l18.768-20.334c3.696-4.004 8.942-6.301 14.392-6.301h19.462c4.114 0 7.449-3.335 7.449-7.449s-3.335-7.449-7.449-7.449h-19.462c-9.595 0-18.831 4.044-25.339 11.094l-7.821 8.473v-48.288c0-9.586 7.798-17.383 17.382-17.383zm-17.382 154.433v-4.413l18.768-20.333c3.697-4.005 8.943-6.302 14.392-6.302h147.124c5.45 0 10.695 2.297 14.392 6.302l15.511 16.805v25.323h-25.954c-8.657-5.906-19.11-9.366-30.357-9.366s-21.7 3.46-30.357 9.366h-106.137c-9.584 0-17.382-7.798-17.382-17.382zm153.877 101.131c-21.564 0-39.108-17.543-39.108-39.108s17.544-39.108 39.108-39.108 39.108 17.543 39.108 39.108c0 21.564-17.544 39.108-39.108 39.108zm71.209-106.107v-149.457h32.031v125.955c-13.196 3.928-24.474 12.352-32.031 23.502zm239.736 22.358h-132.972c-5.017-27.439-29.085-48.308-57.951-48.308-.632 0-1.256.028-1.883.048v-41.696h210.188v72.575c0 9.583-7.798 17.381-17.382 17.381z" fill="#000000" data-original="#000000" style="" class=""/><path d="m189.626 434.237c-3.152-2.644-7.851-2.231-10.495.92-.282.336-.586.65-.904.933-1.612 1.436-3.712 2.164-6.243 2.164-4.216 0-7.956-2.033-10.322-5.161h9.753c4.114 0 7.449-3.335 7.449-7.449s-3.335-7.449-7.449-7.449h-10.245c2.319-3.516 6.298-5.845 10.816-5.845 2.597 0 5.099.763 7.237 2.208 3.41 2.302 8.039 1.407 10.343-2.003 2.303-3.408 1.406-8.039-2.002-10.343-4.61-3.114-9.997-4.76-15.577-4.76-12.901 0-23.778 8.818-26.928 20.743h-.837c-4.114 0-7.449 3.335-7.449 7.449s3.335 7.449 7.449 7.449h1.032c3.379 11.575 14.081 20.059 26.733 20.059 6.206 0 11.791-2.053 16.152-5.938.855-.761 1.665-1.597 2.408-2.482 2.643-3.153 2.231-7.851-.921-10.495z" fill="#000000" data-original="#000000" style="" class=""/><path d="m288.453 408.924c-4.124.021-5.089-.105-7.943-1.949-3.4-2.196-8.057-1.517-10.388 1.792-2.44 3.464-1.508 8.23 2.008 10.53 3.355 2.195 6.059 3.36 8.928 3.956.047 4.16 3.499 7.502 7.702 7.361 4.065-.137 7.192-3.686 7.192-7.754v-.481c6.484-2.566 11.392-8.351 12.608-15.585 1.558-9.266-3.453-17.633-12.467-20.819-3.841-1.358-8.542-3.149-10.974-5.007-.117-.285-.182-1.075.156-1.934.225-.569.674-1.304 1.54-1.565 3.719-1.118 6.083.683 6.34.891-.103-.083-.153-.136-.153-.136l1.565.855c7.572 4.137 14.838-5.912 8.536-11.806-1.453-1.341-3.944-2.939-7.154-3.977-.037-4.167-3.491-7.517-7.697-7.379-4.068.134-7.198 3.685-7.198 7.755v.056c-5.459 2.209-9.467 7.14-10.611 13.211-1.16 6.155.904 12.162 5.386 15.677 4.072 3.194 9.759 5.446 15.298 7.405.808.286 3.269 1.155 2.74 4.303-.285 1.698-1.747 4.576-5.414 4.6z" fill="#000000" data-original="#000000" style="" class=""/></g></g></g></svg>
